G04 Layer_Color=255*
%FSLAX44Y44*%
%MOMM*%
G71*
G01*
G75*
%ADD10R,1.1000X1.0000*%
%ADD11R,1.0000X1.1000*%
%ADD12C,1.8000*%
%ADD13R,2.6000X2.4000*%
%ADD14R,0.9000X0.8000*%
%ADD15R,0.8000X0.9000*%
%ADD16R,5.0000X1.4000*%
%ADD17R,5.0000X1.0000*%
%ADD18R,1.0000X2.4000*%
%ADD19R,3.3000X2.4000*%
%ADD20R,2.4000X2.6000*%
%ADD21O,0.9000X0.3000*%
%ADD22O,0.3000X0.9000*%
%ADD23R,2.8000X2.8000*%
%ADD24R,0.6000X0.9000*%
%ADD32C,1.5000*%
%ADD33R,1.5000X1.5000*%
%ADD34P,1.5154X8X22.5*%
%ADD35C,1.4000*%
%ADD36R,1.5000X1.5000*%
D10*
X195000Y305500D02*
D03*
X212000D02*
D03*
X338700Y121920D02*
D03*
X321700D02*
D03*
X171710Y180340D02*
D03*
X154710D02*
D03*
X254880Y196850D02*
D03*
X237880D02*
D03*
X252990Y180340D02*
D03*
X235990D02*
D03*
D11*
X309000Y360250D02*
D03*
Y343250D02*
D03*
X366000Y242750D02*
D03*
Y259750D02*
D03*
X436000Y323500D02*
D03*
Y306500D02*
D03*
X290000Y141500D02*
D03*
Y124500D02*
D03*
X341630Y259960D02*
D03*
Y242960D02*
D03*
X253500Y157250D02*
D03*
Y140250D02*
D03*
X184150Y195970D02*
D03*
Y212970D02*
D03*
X174640Y142630D02*
D03*
Y159630D02*
D03*
X125730Y216290D02*
D03*
Y233290D02*
D03*
Y157090D02*
D03*
Y140090D02*
D03*
X73660Y158360D02*
D03*
Y141360D02*
D03*
X254750Y234750D02*
D03*
Y217750D02*
D03*
X287500Y236500D02*
D03*
Y253500D02*
D03*
X259750Y360250D02*
D03*
Y343250D02*
D03*
D12*
X109250Y477000D02*
D03*
Y427000D02*
D03*
X59250D02*
D03*
Y477000D02*
D03*
X84250Y452000D02*
D03*
D13*
X313750Y459750D02*
D03*
X249750D02*
D03*
D14*
X270510Y179720D02*
D03*
Y165720D02*
D03*
X125730Y193690D02*
D03*
Y179690D02*
D03*
X191770Y161940D02*
D03*
Y147940D02*
D03*
X270510Y211470D02*
D03*
Y197470D02*
D03*
D15*
X104750Y179000D02*
D03*
X90750D02*
D03*
X217850Y180340D02*
D03*
X203850D02*
D03*
X217820Y196850D02*
D03*
X203820D02*
D03*
X168250Y195000D02*
D03*
X154250D02*
D03*
X333750Y141000D02*
D03*
X319750D02*
D03*
D16*
X25500Y221500D02*
D03*
Y136500D02*
D03*
D17*
Y179000D02*
D03*
D18*
X371250Y357250D02*
D03*
X394250D02*
D03*
X417250D02*
D03*
D19*
X394250Y415250D02*
D03*
D20*
X463250Y351250D02*
D03*
Y415250D02*
D03*
D21*
X301390Y203040D02*
D03*
Y198040D02*
D03*
Y193040D02*
D03*
Y188040D02*
D03*
Y183040D02*
D03*
X351390D02*
D03*
Y188040D02*
D03*
Y193040D02*
D03*
Y198040D02*
D03*
Y203040D02*
D03*
D22*
X316390Y168040D02*
D03*
X321390D02*
D03*
X326390D02*
D03*
X331390D02*
D03*
X336390D02*
D03*
Y218040D02*
D03*
X331390D02*
D03*
X326390D02*
D03*
X321390D02*
D03*
X316390D02*
D03*
D23*
X326390Y193040D02*
D03*
D24*
X279000Y343500D02*
D03*
X291000D02*
D03*
D32*
X173500Y446700D02*
D03*
Y421300D02*
D03*
Y395900D02*
D03*
X367500Y38500D02*
D03*
X463250Y211850D02*
D03*
Y34050D02*
D03*
Y59450D02*
D03*
Y84850D02*
D03*
Y110250D02*
D03*
Y135650D02*
D03*
Y161050D02*
D03*
Y186450D02*
D03*
Y237250D02*
D03*
X344750Y95500D02*
D03*
X287500Y38500D02*
D03*
D33*
X173500Y370500D02*
D03*
X367500Y63900D02*
D03*
X463250Y262650D02*
D03*
X287500Y63900D02*
D03*
D34*
X260100Y305750D02*
D03*
D35*
X308900D02*
D03*
D36*
X319350Y95500D02*
D03*
M02*
