G04 Layer_Color=8421504*
%FSLAX44Y44*%
%MOMM*%
G71*
G01*
G75*
%ADD10R,1.1000X1.0000*%
%ADD11R,1.0000X1.1000*%
%ADD12C,1.8000*%
%ADD13R,2.6000X2.4000*%
%ADD14R,0.9000X0.8000*%
%ADD15R,0.8000X0.9000*%
%ADD16R,5.0000X1.4000*%
%ADD17R,5.0000X1.0000*%
%ADD18R,1.0000X2.4000*%
%ADD19R,3.3000X2.4000*%
%ADD20R,2.4000X2.6000*%
%ADD21O,0.9000X0.3000*%
%ADD22O,0.3000X0.9000*%
%ADD23R,2.8000X2.8000*%
%ADD24R,0.6000X0.9000*%
G36*
X121250Y426130D02*
Y426130D01*
X120325Y424354D01*
X117957Y421124D01*
X115126Y418293D01*
X111896Y415925D01*
X110120Y415000D01*
X99249Y415000D01*
Y433999D01*
X99249D01*
X99741Y434232D01*
X100645Y434836D01*
X101413Y435604D01*
X102017Y436507D01*
X102249Y436999D01*
X121250Y437000D01*
Y426130D01*
D02*
G37*
G36*
X66482Y436509D02*
X67085Y435606D01*
X67854Y434837D01*
X68757Y434233D01*
X69249Y434001D01*
X69250Y415000D01*
X58380D01*
X58380Y415000D01*
X56604Y415925D01*
X53374Y418293D01*
X50543Y421124D01*
X48175Y424354D01*
X47250Y426130D01*
X47250Y437001D01*
X66249D01*
X66482Y436509D01*
D02*
G37*
G36*
X69251Y470001D02*
Y470001D01*
X68759Y469768D01*
X67856Y469165D01*
X67087Y468396D01*
X66483Y467493D01*
X66251Y467001D01*
X47250Y467000D01*
Y477870D01*
X47250D01*
X48175Y479646D01*
X50543Y482876D01*
X53374Y485707D01*
X56604Y488075D01*
X58380Y489000D01*
X69251D01*
Y470001D01*
D02*
G37*
G36*
X111896Y488075D02*
X115126Y485707D01*
X117957Y482876D01*
X120325Y479646D01*
X121250Y477870D01*
Y466999D01*
X102251D01*
X102251Y466999D01*
X102018Y467491D01*
X101414Y468395D01*
X100646Y469163D01*
X99742Y469767D01*
X99251Y469999D01*
X99250Y489000D01*
X110120D01*
X111896Y488075D01*
D02*
G37*
D10*
X195000Y305500D02*
D03*
X212000D02*
D03*
X338700Y121920D02*
D03*
X321700D02*
D03*
X171710Y180340D02*
D03*
X154710D02*
D03*
X254880Y196850D02*
D03*
X237880D02*
D03*
X252990Y180340D02*
D03*
X235990D02*
D03*
D11*
X309000Y360250D02*
D03*
Y343250D02*
D03*
X366000Y242750D02*
D03*
Y259750D02*
D03*
X436000Y323500D02*
D03*
Y306500D02*
D03*
X290000Y141500D02*
D03*
Y124500D02*
D03*
X341630Y259960D02*
D03*
Y242960D02*
D03*
X253500Y157250D02*
D03*
Y140250D02*
D03*
X184150Y195970D02*
D03*
Y212970D02*
D03*
X174640Y142630D02*
D03*
Y159630D02*
D03*
X125730Y216290D02*
D03*
Y233290D02*
D03*
Y157090D02*
D03*
Y140090D02*
D03*
X73660Y158360D02*
D03*
Y141360D02*
D03*
X254750Y234750D02*
D03*
Y217750D02*
D03*
X287500Y236500D02*
D03*
Y253500D02*
D03*
X259750Y360250D02*
D03*
Y343250D02*
D03*
D12*
X109250Y477000D02*
D03*
Y427000D02*
D03*
X59250D02*
D03*
Y477000D02*
D03*
X84250Y452000D02*
D03*
D13*
X313750Y459750D02*
D03*
X249750D02*
D03*
D14*
X270510Y179720D02*
D03*
Y165720D02*
D03*
X125730Y193690D02*
D03*
Y179690D02*
D03*
X191770Y161940D02*
D03*
Y147940D02*
D03*
X270510Y211470D02*
D03*
Y197470D02*
D03*
D15*
X104750Y179000D02*
D03*
X90750D02*
D03*
X217850Y180340D02*
D03*
X203850D02*
D03*
X217820Y196850D02*
D03*
X203820D02*
D03*
X168250Y195000D02*
D03*
X154250D02*
D03*
X333750Y141000D02*
D03*
X319750D02*
D03*
D16*
X25500Y221500D02*
D03*
Y136500D02*
D03*
D17*
Y179000D02*
D03*
D18*
X371250Y357250D02*
D03*
X394250D02*
D03*
X417250D02*
D03*
D19*
X394250Y415250D02*
D03*
D20*
X463250Y351250D02*
D03*
Y415250D02*
D03*
D21*
X301390Y203040D02*
D03*
Y198040D02*
D03*
Y193040D02*
D03*
Y188040D02*
D03*
Y183040D02*
D03*
X351390D02*
D03*
Y188040D02*
D03*
Y193040D02*
D03*
Y198040D02*
D03*
Y203040D02*
D03*
D22*
X316390Y168040D02*
D03*
X321390D02*
D03*
X326390D02*
D03*
X331390D02*
D03*
X336390D02*
D03*
Y218040D02*
D03*
X331390D02*
D03*
X326390D02*
D03*
X321390D02*
D03*
X316390D02*
D03*
D23*
X326390Y193040D02*
D03*
D24*
X279000Y343500D02*
D03*
X291000D02*
D03*
M02*
